<svg xmlns="http://www.w3.org/2000/svg" id="Layer_1" data-name="Layer 1" viewBox="97.71 462.61 1729.71 133.92"><path d="M184.58,567.58v26.19H97.71V464.5h85.66v26.2H126v23.44h54.29v24.48H126v29Z" fill="#e9e3ab"/><path d="M293,591.88c-6.38,3.45-16.2,4.65-24.47,4.65-38.79,0-67.92-28.78-67.92-67,0-38.43,29.31-66.87,68.26-66.87,8.1,0,17.75,1.2,24.13,4.31L292.82,495c-6.21-3.27-13.62-4.83-22.24-4.83-22.92,0-39.64,16.21-39.64,39.3s16.72,39.13,39.64,39.13c8.62,0,16-1.38,22.24-4.48Z" fill="#e9e3ab"/><path d="M431.39,464.5V593.77H401.23V540H343.14v53.77H313V464.5h30.16v48.09h58.09V464.5Z" fill="#e9e3ab"/><path d="M451.38,529.48c0-38.09,28.61-66.87,67.39-66.87,39.13,0,67.57,28.78,67.57,66.87s-28.44,67-67.57,67C480,596.53,451.38,567.58,451.38,529.48Zm105.14,0c0-22.58-15.68-39.47-37.75-39.47-21.89,0-37.4,16.89-37.4,39.47,0,22.24,15.51,39.3,37.4,39.3C540.84,568.78,556.52,551.72,556.52,529.48Z" fill="#e9e3ab"/><path d="M673.2,490.7v23.44h40.16V539H673.2v54.81H643.73V464.5H715.6v26.2Z" fill="#e9e3ab"/><path d="M729,529.48c0-38.09,28.62-66.87,67.4-66.87,39.12,0,67.56,28.78,67.56,66.87s-28.44,67-67.56,67C757.66,596.53,729,567.58,729,529.48Zm105.14,0c0-22.58-15.68-39.47-37.74-39.47C774.55,490,759,506.9,759,529.48c0,22.24,15.52,39.3,37.41,39.3C818.5,568.78,834.18,551.72,834.18,529.48Z" fill="#e9e3ab"/><path d="M960.35,593.77l-20-37.23c-2.93.18-6,.35-9.3.35a92.44,92.44,0,0,1-16.38-1.38v38.26H884.16V464.5h53.09c33.78,0,53.26,16.55,53.26,44.3,0,18.44-8.1,31.71-22.06,39.64l24.65,45.33Zm-.69-83.42c0-12.06-6.9-19.48-25.34-19.48H914.67V531a85.22,85.22,0,0,0,15.51,1.21C950.52,532.24,959.66,524.66,959.66,510.35Z" fill="#e9e3ab"/><path d="M1135.29,593.77l-9.65-66.87-38.27,54.81h-4.65l-39.13-55.33-9.82,67.39h-29.65l20-130.47h3.62L1085,541.38l56.54-78.08h3.62l20,130.47Z" fill="#e9e3ab"/><path d="M1217,588.26V578.09c5.86,4.31,17.24,8.45,29,8.45,22.4,0,34.13-11.73,34.13-26.38,0-11.2-7.24-19.82-20.69-26.71L1243,525c-14.14-7.24-23.62-16.2-23.62-30.33,0-18.62,16.72-32.06,42.58-32.06,9.48,0,19,2.41,23.09,4.82V477.6c-4.65-2.76-14.13-5.51-22.92-5.51-19.48,0-31.72,9.48-31.72,22.58,0,10.17,7.07,16.2,17.93,21.89l16.38,8.44c16.54,8.45,25.68,19.65,25.68,35,0,19.82-15,36.2-44,36.2C1234.56,596.19,1223,592.57,1217,588.26Z" fill="#e9e3ab"/><path d="M1337.11,474.33h-36.88V464.5h84.46v9.83H1347.8V593.77h-10.69Z" fill="#e9e3ab"/><path d="M1397.09,539V464.5h10.52v74.81c0,28.61,16.72,46.88,44.3,46.88,27.4,0,44.12-18.27,44.12-46.88V464.5h10.51V539c0,35.68-21.37,57.23-54.63,57.23C1418.81,596.19,1397.09,574.64,1397.09,539Z" fill="#e9e3ab"/><path d="M1640,529c0,38.61-28.27,67.22-73.09,67.22-14.47,0-28.95-2.59-35.85-5.17V464.5h36C1611.68,464.5,1640,492.25,1640,529Zm-10.86.17c0-30.17-22.41-54.81-62-54.81h-25.69V583.26a118.13,118.13,0,0,0,26.38,3.1C1607,586.36,1629.09,560.68,1629.09,529.14Z" fill="#e9e3ab"/><path d="M1661.31,464.5h10.52V593.77h-10.52Z" fill="#e9e3ab"/><path d="M1693.2,529c0-37.41,29.13-66.36,67.22-66.36,38.26,0,67,28.95,67,66.36,0,37.57-28.79,67.22-67,67.22C1722.33,596.19,1693.2,566.54,1693.2,529ZM1817,529c0-31.89-24.64-56.71-56.53-56.71-32.06,0-56.54,24.82-56.54,56.71,0,32.06,24.48,57.22,56.54,57.22C1792.31,586.19,1817,561,1817,529Z" fill="#e9e3ab"/></svg>